<?xml version="1.0" encoding="UTF-8" standalone="no"?>
<!-- Created with ZXing.Net (http://zxingnet.codeplex.com/) -->
<!DOCTYPE svg PUBLIC "-//W3C//DTD SVG 1.1//EN" "http://www.w3.org/Graphics/SVG/1.1/DTD/svg11.dtd">
<svg xmlns="http://www.w3.org/2000/svg" version="1.2" baseProfile="tiny" shape-rendering="crispEdges" viewBox="0 0 300 300" viewport-fill="rgb(255,255,255)" viewport-fill-opacity="1" fill="rgb(0,0,0)" fill-opacity="1" style="background-color:rgb(255,255,255);background-color:rgba(255, 255, 255, 1);"><rect x="37" y="37" width="9" height="63"/><rect x="37" y="109" width="9" height="18"/><rect x="37" y="145" width="27" height="9"/><rect x="37" y="172" width="9" height="9"/><rect x="37" y="199" width="9" height="63"/><rect x="46" y="37" width="54" height="9"/><rect x="46" y="91" width="54" height="9"/><rect x="46" y="109" width="27" height="9"/><rect x="46" y="127" width="18" height="9"/><rect x="46" y="154" width="9" height="18"/><rect x="46" y="199" width="54" height="9"/><rect x="46" y="253" width="54" height="9"/><rect x="55" y="55" width="27" height="27"/><rect x="55" y="118" width="9" height="36"/><rect x="55" y="172" width="18" height="9"/><rect x="55" y="217" width="27" height="27"/><rect x="64" y="118" width="9" height="9"/><rect x="64" y="136" width="27" height="9"/><rect x="64" y="181" width="9" height="9"/><rect x="73" y="145" width="9" height="27"/><rect x="82" y="118" width="9" height="36"/><rect x="82" y="172" width="9" height="18"/><rect x="91" y="46" width="9" height="54"/><rect x="91" y="109" width="9" height="9"/><rect x="91" y="127" width="18" height="9"/><rect x="91" y="145" width="9" height="9"/><rect x="91" y="163" width="27" height="9"/><rect x="91" y="181" width="9" height="9"/><rect x="91" y="208" width="9" height="54"/><rect x="100" y="118" width="9" height="18"/><rect x="100" y="172" width="9" height="9"/><rect x="109" y="37" width="18" height="9"/><rect x="109" y="55" width="9" height="27"/><rect x="109" y="91" width="9" height="9"/><rect x="109" y="109" width="9" height="9"/><rect x="109" y="136" width="9" height="18"/><rect x="109" y="190" width="9" height="9"/><rect x="109" y="226" width="9" height="36"/><rect x="118" y="64" width="9" height="27"/><rect x="118" y="100" width="9" height="9"/><rect x="118" y="118" width="9" height="9"/><rect x="118" y="145" width="9" height="9"/><rect x="118" y="172" width="9" height="18"/><rect x="118" y="208" width="9" height="18"/><rect x="118" y="235" width="9" height="27"/><rect x="127" y="73" width="18" height="9"/><rect x="127" y="91" width="9" height="9"/><rect x="127" y="154" width="9" height="18"/><rect x="127" y="181" width="18" height="9"/><rect x="127" y="199" width="27" height="9"/><rect x="127" y="217" width="36" height="9"/><rect x="127" y="235" width="36" height="9"/><rect x="136" y="55" width="9" height="27"/><rect x="136" y="100" width="9" height="9"/><rect x="136" y="136" width="9" height="27"/><rect x="145" y="55" width="36" height="9"/><rect x="145" y="82" width="9" height="18"/><rect x="145" y="136" width="27" height="9"/><rect x="145" y="163" width="9" height="18"/><rect x="145" y="190" width="9" height="54"/><rect x="145" y="253" width="9" height="9"/><rect x="154" y="64" width="9" height="9"/><rect x="154" y="145" width="9" height="27"/><rect x="154" y="181" width="108" height="9"/><rect x="154" y="226" width="9" height="18"/><rect x="163" y="37" width="9" height="27"/><rect x="163" y="91" width="9" height="18"/><rect x="163" y="118" width="9" height="9"/><rect x="163" y="172" width="9" height="27"/><rect x="163" y="208" width="27" height="9"/><rect x="163" y="253" width="18" height="9"/><rect x="172" y="73" width="9" height="9"/><rect x="172" y="100" width="18" height="18"/><rect x="172" y="145" width="54" height="18"/><rect x="172" y="172" width="9" height="18"/><rect x="172" y="226" width="36" height="18"/><rect x="181" y="46" width="9" height="9"/><rect x="181" y="64" width="9" height="9"/><rect x="181" y="91" width="9" height="27"/><rect x="181" y="190" width="9" height="54"/><rect x="190" y="109" width="9" height="63"/><rect x="190" y="217" width="18" height="27"/><rect x="199" y="37" width="9" height="63"/><rect x="199" y="163" width="9" height="27"/><rect x="199" y="199" width="9" height="9"/><rect x="208" y="37" width="54" height="9"/><rect x="208" y="91" width="54" height="9"/><rect x="208" y="118" width="9" height="45"/><rect x="208" y="172" width="18" height="18"/><rect x="208" y="217" width="27" height="9"/><rect x="208" y="253" width="54" height="9"/><rect x="217" y="55" width="27" height="27"/><rect x="217" y="109" width="27" height="9"/><rect x="217" y="163" width="9" height="99"/><rect x="226" y="136" width="18" height="9"/><rect x="226" y="226" width="36" height="9"/><rect x="235" y="145" width="27" height="9"/><rect x="235" y="163" width="18" height="9"/><rect x="235" y="190" width="9" height="18"/><rect x="235" y="235" width="9" height="27"/><rect x="244" y="118" width="9" height="9"/><rect x="244" y="199" width="9" height="45"/><rect x="253" y="46" width="9" height="54"/><rect x="253" y="109" width="9" height="9"/><rect x="253" y="154" width="9" height="9"/><rect x="253" y="172" width="9" height="45"/></svg>